<mxfile host="Electron" agent="Mozilla/5.0 (Windows NT 10.0; Win64; x64) AppleWebKit/537.36 (KHTML, like Gecko) draw.io/24.7.17 Chrome/128.0.6613.36 Electron/32.0.1 Safari/537.36" version="24.7.17">
  <diagram id="C5RBs43oDa-KdzZeNtuy" name="Page-1">
    <mxGraphModel dx="1440" dy="815" grid="1" gridSize="10" guides="1" tooltips="1" connect="1" arrows="1" fold="1" page="1" pageScale="1" pageWidth="827" pageHeight="1169" math="0" shadow="0">
      <root>
        <mxCell id="WIyWlLk6GJQsqaUBKTNV-0" />
        <mxCell id="WIyWlLk6GJQsqaUBKTNV-1" parent="WIyWlLk6GJQsqaUBKTNV-0" />
        <mxCell id="AmiO1NkPSx5S4UXmDlpI-0" value="" style="ellipse;whiteSpace=wrap;html=1;aspect=fixed;" vertex="1" parent="WIyWlLk6GJQsqaUBKTNV-1">
          <mxGeometry x="-95" y="155" width="70" height="70" as="geometry" />
        </mxCell>
        <mxCell id="AmiO1NkPSx5S4UXmDlpI-6" value="游客" style="text;html=1;align=center;verticalAlign=middle;whiteSpace=wrap;rounded=0;" vertex="1" parent="WIyWlLk6GJQsqaUBKTNV-1">
          <mxGeometry x="-90" y="175" width="60" height="30" as="geometry" />
        </mxCell>
        <mxCell id="AmiO1NkPSx5S4UXmDlpI-7" value="" style="ellipse;whiteSpace=wrap;html=1;aspect=fixed;" vertex="1" parent="WIyWlLk6GJQsqaUBKTNV-1">
          <mxGeometry x="-95" y="280" width="70" height="70" as="geometry" />
        </mxCell>
        <mxCell id="AmiO1NkPSx5S4UXmDlpI-9" value="顾客" style="text;html=1;align=center;verticalAlign=middle;whiteSpace=wrap;rounded=0;" vertex="1" parent="WIyWlLk6GJQsqaUBKTNV-1">
          <mxGeometry x="-90" y="300" width="60" height="30" as="geometry" />
        </mxCell>
        <mxCell id="AmiO1NkPSx5S4UXmDlpI-10" value="销售人员" style="ellipse;whiteSpace=wrap;html=1;aspect=fixed;" vertex="1" parent="WIyWlLk6GJQsqaUBKTNV-1">
          <mxGeometry x="130" y="260" width="80" height="80" as="geometry" />
        </mxCell>
        <mxCell id="AmiO1NkPSx5S4UXmDlpI-12" value="" style="ellipse;whiteSpace=wrap;html=1;aspect=fixed;" vertex="1" parent="WIyWlLk6GJQsqaUBKTNV-1">
          <mxGeometry x="360" y="260" width="80" height="80" as="geometry" />
        </mxCell>
        <mxCell id="AmiO1NkPSx5S4UXmDlpI-13" value="店长" style="text;html=1;align=center;verticalAlign=middle;whiteSpace=wrap;rounded=0;" vertex="1" parent="WIyWlLk6GJQsqaUBKTNV-1">
          <mxGeometry x="370" y="285" width="60" height="30" as="geometry" />
        </mxCell>
        <mxCell id="AmiO1NkPSx5S4UXmDlpI-14" value="" style="shape=cylinder3;whiteSpace=wrap;html=1;boundedLbl=1;backgroundOutline=1;size=15;" vertex="1" parent="WIyWlLk6GJQsqaUBKTNV-1">
          <mxGeometry x="160" y="380" width="60" height="80" as="geometry" />
        </mxCell>
        <mxCell id="AmiO1NkPSx5S4UXmDlpI-15" value="图书信息" style="text;html=1;align=center;verticalAlign=middle;whiteSpace=wrap;rounded=0;" vertex="1" parent="WIyWlLk6GJQsqaUBKTNV-1">
          <mxGeometry x="160" y="410" width="60" height="30" as="geometry" />
        </mxCell>
        <mxCell id="AmiO1NkPSx5S4UXmDlpI-16" value="" style="shape=cylinder3;whiteSpace=wrap;html=1;boundedLbl=1;backgroundOutline=1;size=15;" vertex="1" parent="WIyWlLk6GJQsqaUBKTNV-1">
          <mxGeometry x="170" y="135" width="60" height="80" as="geometry" />
        </mxCell>
        <mxCell id="AmiO1NkPSx5S4UXmDlpI-17" value="用户信息" style="text;html=1;align=center;verticalAlign=middle;whiteSpace=wrap;rounded=0;" vertex="1" parent="WIyWlLk6GJQsqaUBKTNV-1">
          <mxGeometry x="170" y="175" width="60" height="30" as="geometry" />
        </mxCell>
        <mxCell id="AmiO1NkPSx5S4UXmDlpI-18" value="" style="shape=flexArrow;endArrow=classic;html=1;rounded=0;entryX=-0.031;entryY=0.566;entryDx=0;entryDy=0;exitX=1;exitY=0.5;exitDx=0;exitDy=0;entryPerimeter=0;" edge="1" parent="WIyWlLk6GJQsqaUBKTNV-1" source="AmiO1NkPSx5S4UXmDlpI-0" target="AmiO1NkPSx5S4UXmDlpI-16">
          <mxGeometry width="50" height="50" relative="1" as="geometry">
            <mxPoint x="70" y="230" as="sourcePoint" />
            <mxPoint x="120" y="180" as="targetPoint" />
          </mxGeometry>
        </mxCell>
        <mxCell id="AmiO1NkPSx5S4UXmDlpI-19" value="登录，注册" style="text;html=1;align=center;verticalAlign=middle;whiteSpace=wrap;rounded=0;" vertex="1" parent="WIyWlLk6GJQsqaUBKTNV-1">
          <mxGeometry x="60" y="160" width="80" height="30" as="geometry" />
        </mxCell>
        <mxCell id="AmiO1NkPSx5S4UXmDlpI-20" value="" style="shape=flexArrow;endArrow=classic;html=1;rounded=0;" edge="1" parent="WIyWlLk6GJQsqaUBKTNV-1" source="AmiO1NkPSx5S4UXmDlpI-16" target="AmiO1NkPSx5S4UXmDlpI-7">
          <mxGeometry width="50" height="50" relative="1" as="geometry">
            <mxPoint x="100" y="270" as="sourcePoint" />
            <mxPoint x="150" y="220" as="targetPoint" />
          </mxGeometry>
        </mxCell>
        <mxCell id="AmiO1NkPSx5S4UXmDlpI-25" value="List" style="swimlane;fontStyle=0;childLayout=stackLayout;horizontal=1;startSize=30;horizontalStack=0;resizeParent=1;resizeParentMax=0;resizeLast=0;collapsible=1;marginBottom=0;whiteSpace=wrap;html=1;" vertex="1" parent="WIyWlLk6GJQsqaUBKTNV-1">
          <mxGeometry x="130" y="510" width="120" height="210" as="geometry" />
        </mxCell>
        <mxCell id="AmiO1NkPSx5S4UXmDlpI-26" value="&lt;span style=&quot;color: rgb(31, 35, 40); font-family: -apple-system, BlinkMacSystemFont, &amp;quot;Segoe UI&amp;quot;, &amp;quot;Noto Sans&amp;quot;, Helvetica, Arial, sans-serif, &amp;quot;Apple Color Emoji&amp;quot;, &amp;quot;Segoe UI Emoji&amp;quot;; font-size: 16px; background-color: rgb(255, 255, 255);&quot;&gt;ISBN&lt;/span&gt;" style="text;strokeColor=none;fillColor=none;align=left;verticalAlign=middle;spacingLeft=4;spacingRight=4;overflow=hidden;points=[[0,0.5],[1,0.5]];portConstraint=eastwest;rotatable=0;whiteSpace=wrap;html=1;" vertex="1" parent="AmiO1NkPSx5S4UXmDlpI-25">
          <mxGeometry y="30" width="120" height="30" as="geometry" />
        </mxCell>
        <mxCell id="AmiO1NkPSx5S4UXmDlpI-27" value="&lt;span style=&quot;color: rgb(31, 35, 40); font-family: -apple-system, BlinkMacSystemFont, &amp;quot;Segoe UI&amp;quot;, &amp;quot;Noto Sans&amp;quot;, Helvetica, Arial, sans-serif, &amp;quot;Apple Color Emoji&amp;quot;, &amp;quot;Segoe UI Emoji&amp;quot;; font-size: 16px; background-color: rgb(255, 255, 255);&quot;&gt;书名&lt;/span&gt;" style="text;strokeColor=none;fillColor=none;align=left;verticalAlign=middle;spacingLeft=4;spacingRight=4;overflow=hidden;points=[[0,0.5],[1,0.5]];portConstraint=eastwest;rotatable=0;whiteSpace=wrap;html=1;" vertex="1" parent="AmiO1NkPSx5S4UXmDlpI-25">
          <mxGeometry y="60" width="120" height="30" as="geometry" />
        </mxCell>
        <mxCell id="AmiO1NkPSx5S4UXmDlpI-33" value="&lt;span style=&quot;color: rgb(31, 35, 40); font-family: -apple-system, BlinkMacSystemFont, &amp;quot;Segoe UI&amp;quot;, &amp;quot;Noto Sans&amp;quot;, Helvetica, Arial, sans-serif, &amp;quot;Apple Color Emoji&amp;quot;, &amp;quot;Segoe UI Emoji&amp;quot;; font-size: 16px; background-color: rgb(255, 255, 255);&quot;&gt;作者&lt;/span&gt;" style="text;strokeColor=none;fillColor=none;align=left;verticalAlign=middle;spacingLeft=4;spacingRight=4;overflow=hidden;points=[[0,0.5],[1,0.5]];portConstraint=eastwest;rotatable=0;whiteSpace=wrap;html=1;" vertex="1" parent="AmiO1NkPSx5S4UXmDlpI-25">
          <mxGeometry y="90" width="120" height="30" as="geometry" />
        </mxCell>
        <mxCell id="AmiO1NkPSx5S4UXmDlpI-28" value="&lt;span style=&quot;color: rgb(31, 35, 40); font-family: -apple-system, BlinkMacSystemFont, &amp;quot;Segoe UI&amp;quot;, &amp;quot;Noto Sans&amp;quot;, Helvetica, Arial, sans-serif, &amp;quot;Apple Color Emoji&amp;quot;, &amp;quot;Segoe UI Emoji&amp;quot;; font-size: 16px; background-color: rgb(255, 255, 255);&quot;&gt;关键字&lt;/span&gt;" style="text;strokeColor=none;fillColor=none;align=left;verticalAlign=middle;spacingLeft=4;spacingRight=4;overflow=hidden;points=[[0,0.5],[1,0.5]];portConstraint=eastwest;rotatable=0;whiteSpace=wrap;html=1;" vertex="1" parent="AmiO1NkPSx5S4UXmDlpI-25">
          <mxGeometry y="120" width="120" height="30" as="geometry" />
        </mxCell>
        <mxCell id="AmiO1NkPSx5S4UXmDlpI-31" value="&lt;span style=&quot;color: rgb(31, 35, 40); font-family: -apple-system, BlinkMacSystemFont, &amp;quot;Segoe UI&amp;quot;, &amp;quot;Noto Sans&amp;quot;, Helvetica, Arial, sans-serif, &amp;quot;Apple Color Emoji&amp;quot;, &amp;quot;Segoe UI Emoji&amp;quot;; font-size: 16px; background-color: rgb(255, 255, 255);&quot;&gt;库存量&lt;/span&gt;" style="text;strokeColor=none;fillColor=none;align=left;verticalAlign=middle;spacingLeft=4;spacingRight=4;overflow=hidden;points=[[0,0.5],[1,0.5]];portConstraint=eastwest;rotatable=0;whiteSpace=wrap;html=1;" vertex="1" parent="AmiO1NkPSx5S4UXmDlpI-25">
          <mxGeometry y="150" width="120" height="30" as="geometry" />
        </mxCell>
        <mxCell id="AmiO1NkPSx5S4UXmDlpI-32" value="&lt;span style=&quot;color: rgb(31, 35, 40); font-family: -apple-system, BlinkMacSystemFont, &amp;quot;Segoe UI&amp;quot;, &amp;quot;Noto Sans&amp;quot;, Helvetica, Arial, sans-serif, &amp;quot;Apple Color Emoji&amp;quot;, &amp;quot;Segoe UI Emoji&amp;quot;; font-size: 16px; background-color: rgb(255, 255, 255);&quot;&gt;单价&lt;/span&gt;" style="text;strokeColor=none;fillColor=none;align=left;verticalAlign=middle;spacingLeft=4;spacingRight=4;overflow=hidden;points=[[0,0.5],[1,0.5]];portConstraint=eastwest;rotatable=0;whiteSpace=wrap;html=1;" vertex="1" parent="AmiO1NkPSx5S4UXmDlpI-25">
          <mxGeometry y="180" width="120" height="30" as="geometry" />
        </mxCell>
        <mxCell id="AmiO1NkPSx5S4UXmDlpI-34" value="" style="shape=flexArrow;endArrow=classic;startArrow=classic;html=1;rounded=0;entryX=0.5;entryY=0;entryDx=0;entryDy=0;exitX=0.5;exitY=1;exitDx=0;exitDy=0;endWidth=3.3333333333333335;endSize=3.6833333333333336;startWidth=3.3333333333333335;startSize=3.6833333333333336;exitPerimeter=0;" edge="1" parent="WIyWlLk6GJQsqaUBKTNV-1" source="AmiO1NkPSx5S4UXmDlpI-14" target="AmiO1NkPSx5S4UXmDlpI-25">
          <mxGeometry width="100" height="100" relative="1" as="geometry">
            <mxPoint x="90" y="400" as="sourcePoint" />
            <mxPoint x="190" y="300" as="targetPoint" />
          </mxGeometry>
        </mxCell>
        <mxCell id="AmiO1NkPSx5S4UXmDlpI-35" value="" style="shape=flexArrow;endArrow=classic;html=1;rounded=0;exitX=0;exitY=0;exitDx=0;exitDy=0;entryX=1;entryY=0.5;entryDx=0;entryDy=0;" edge="1" parent="WIyWlLk6GJQsqaUBKTNV-1" source="AmiO1NkPSx5S4UXmDlpI-15" target="AmiO1NkPSx5S4UXmDlpI-7">
          <mxGeometry width="50" height="50" relative="1" as="geometry">
            <mxPoint x="40" y="320" as="sourcePoint" />
            <mxPoint x="-70" y="530" as="targetPoint" />
          </mxGeometry>
        </mxCell>
        <mxCell id="AmiO1NkPSx5S4UXmDlpI-38" value="查询" style="text;html=1;align=center;verticalAlign=middle;whiteSpace=wrap;rounded=0;" vertex="1" parent="WIyWlLk6GJQsqaUBKTNV-1">
          <mxGeometry x="60" y="330" width="30" height="20" as="geometry" />
        </mxCell>
        <mxCell id="AmiO1NkPSx5S4UXmDlpI-41" value="" style="shape=flexArrow;endArrow=classic;html=1;rounded=0;exitX=0.933;exitY=0.788;exitDx=0;exitDy=0;exitPerimeter=0;entryX=0;entryY=1;entryDx=0;entryDy=-15;entryPerimeter=0;" edge="1" parent="WIyWlLk6GJQsqaUBKTNV-1" source="AmiO1NkPSx5S4UXmDlpI-7" target="AmiO1NkPSx5S4UXmDlpI-14">
          <mxGeometry width="50" height="50" relative="1" as="geometry">
            <mxPoint x="140" y="430" as="sourcePoint" />
            <mxPoint x="190" y="380" as="targetPoint" />
          </mxGeometry>
        </mxCell>
        <mxCell id="AmiO1NkPSx5S4UXmDlpI-43" value="购买" style="text;strokeColor=none;align=center;fillColor=none;html=1;verticalAlign=middle;whiteSpace=wrap;rounded=0;" vertex="1" parent="WIyWlLk6GJQsqaUBKTNV-1">
          <mxGeometry y="370" width="60" height="30" as="geometry" />
        </mxCell>
        <mxCell id="AmiO1NkPSx5S4UXmDlpI-45" value="" style="shape=flexArrow;endArrow=classic;html=1;rounded=0;exitX=0.973;exitY=0.431;exitDx=0;exitDy=0;endWidth=10;endSize=5.971428571428571;exitPerimeter=0;entryX=0;entryY=0.5;entryDx=0;entryDy=0;" edge="1" parent="WIyWlLk6GJQsqaUBKTNV-1" source="AmiO1NkPSx5S4UXmDlpI-7" target="AmiO1NkPSx5S4UXmDlpI-10">
          <mxGeometry width="50" height="50" relative="1" as="geometry">
            <mxPoint x="80" y="350" as="sourcePoint" />
            <mxPoint x="90" y="260" as="targetPoint" />
          </mxGeometry>
        </mxCell>
        <mxCell id="AmiO1NkPSx5S4UXmDlpI-47" value="具有权限" style="text;html=1;align=center;verticalAlign=middle;whiteSpace=wrap;rounded=0;" vertex="1" parent="WIyWlLk6GJQsqaUBKTNV-1">
          <mxGeometry x="30" y="280" width="60" height="30" as="geometry" />
        </mxCell>
        <mxCell id="AmiO1NkPSx5S4UXmDlpI-48" value="" style="shape=flexArrow;endArrow=classic;html=1;rounded=0;entryX=0.35;entryY=1.009;entryDx=0;entryDy=0;entryPerimeter=0;exitX=0.629;exitY=-0.011;exitDx=0;exitDy=0;exitPerimeter=0;" edge="1" parent="WIyWlLk6GJQsqaUBKTNV-1" source="AmiO1NkPSx5S4UXmDlpI-10" target="AmiO1NkPSx5S4UXmDlpI-16">
          <mxGeometry width="50" height="50" relative="1" as="geometry">
            <mxPoint x="190" y="260" as="sourcePoint" />
            <mxPoint x="240" y="220" as="targetPoint" />
          </mxGeometry>
        </mxCell>
        <mxCell id="AmiO1NkPSx5S4UXmDlpI-49" value="创建用户" style="text;html=1;align=center;verticalAlign=middle;whiteSpace=wrap;rounded=0;" vertex="1" parent="WIyWlLk6GJQsqaUBKTNV-1">
          <mxGeometry x="130" y="230" width="60" height="30" as="geometry" />
        </mxCell>
        <mxCell id="AmiO1NkPSx5S4UXmDlpI-50" value="" style="shape=flexArrow;endArrow=classic;html=1;rounded=0;entryX=0.5;entryY=0;entryDx=0;entryDy=0;entryPerimeter=0;exitX=0.727;exitY=0.975;exitDx=0;exitDy=0;exitPerimeter=0;endWidth=6.8965517241379315;endSize=5.868;width=6.8;" edge="1" parent="WIyWlLk6GJQsqaUBKTNV-1" source="AmiO1NkPSx5S4UXmDlpI-10" target="AmiO1NkPSx5S4UXmDlpI-14">
          <mxGeometry width="50" height="50" relative="1" as="geometry">
            <mxPoint x="200" y="365" as="sourcePoint" />
            <mxPoint x="250" y="315" as="targetPoint" />
          </mxGeometry>
        </mxCell>
        <mxCell id="AmiO1NkPSx5S4UXmDlpI-51" value="进货" style="text;html=1;align=center;verticalAlign=middle;whiteSpace=wrap;rounded=0;" vertex="1" parent="WIyWlLk6GJQsqaUBKTNV-1">
          <mxGeometry x="180" y="340" width="60" height="30" as="geometry" />
        </mxCell>
        <mxCell id="AmiO1NkPSx5S4UXmDlpI-52" value="" style="shape=flexArrow;endArrow=classic;html=1;rounded=0;entryX=0.249;entryY=0.029;entryDx=0;entryDy=0;entryPerimeter=0;exitX=0.391;exitY=1.017;exitDx=0;exitDy=0;exitPerimeter=0;endWidth=6.19047619047619;endSize=5.3619047619047615;" edge="1" parent="WIyWlLk6GJQsqaUBKTNV-1" source="AmiO1NkPSx5S4UXmDlpI-10" target="AmiO1NkPSx5S4UXmDlpI-14">
          <mxGeometry width="50" height="50" relative="1" as="geometry">
            <mxPoint x="160" y="320" as="sourcePoint" />
            <mxPoint x="210" y="270" as="targetPoint" />
          </mxGeometry>
        </mxCell>
        <mxCell id="AmiO1NkPSx5S4UXmDlpI-53" value="&lt;font style=&quot;font-size: 6px;&quot;&gt;修改，录入信息&lt;/font&gt;" style="text;html=1;align=center;verticalAlign=middle;whiteSpace=wrap;rounded=0;" vertex="1" parent="WIyWlLk6GJQsqaUBKTNV-1">
          <mxGeometry x="110" y="340" width="50" height="30" as="geometry" />
        </mxCell>
        <mxCell id="AmiO1NkPSx5S4UXmDlpI-54" value="" style="shape=cylinder3;whiteSpace=wrap;html=1;boundedLbl=1;backgroundOutline=1;size=15;" vertex="1" parent="WIyWlLk6GJQsqaUBKTNV-1">
          <mxGeometry x="340" y="135" width="60" height="80" as="geometry" />
        </mxCell>
        <mxCell id="AmiO1NkPSx5S4UXmDlpI-55" value="&lt;font style=&quot;font-size: 10px;&quot;&gt;采购信息和盈利信息&lt;/font&gt;" style="text;html=1;align=center;verticalAlign=middle;whiteSpace=wrap;rounded=0;" vertex="1" parent="WIyWlLk6GJQsqaUBKTNV-1">
          <mxGeometry x="342.5" y="170" width="55" height="30" as="geometry" />
        </mxCell>
        <mxCell id="AmiO1NkPSx5S4UXmDlpI-56" value="" style="shape=flexArrow;endArrow=classic;html=1;rounded=0;exitX=0.928;exitY=0.268;exitDx=0;exitDy=0;exitPerimeter=0;entryX=0;entryY=1;entryDx=0;entryDy=-15;entryPerimeter=0;" edge="1" parent="WIyWlLk6GJQsqaUBKTNV-1" source="AmiO1NkPSx5S4UXmDlpI-10" target="AmiO1NkPSx5S4UXmDlpI-54">
          <mxGeometry width="50" height="50" relative="1" as="geometry">
            <mxPoint x="240" y="320" as="sourcePoint" />
            <mxPoint x="290" y="270" as="targetPoint" />
          </mxGeometry>
        </mxCell>
        <mxCell id="AmiO1NkPSx5S4UXmDlpI-59" value="" style="shape=flexArrow;endArrow=classic;html=1;rounded=0;entryX=0;entryY=0.5;entryDx=0;entryDy=0;exitX=1;exitY=0.5;exitDx=0;exitDy=0;" edge="1" parent="WIyWlLk6GJQsqaUBKTNV-1" source="AmiO1NkPSx5S4UXmDlpI-10" target="AmiO1NkPSx5S4UXmDlpI-12">
          <mxGeometry width="50" height="50" relative="1" as="geometry">
            <mxPoint x="290" y="350" as="sourcePoint" />
            <mxPoint x="290" y="270" as="targetPoint" />
          </mxGeometry>
        </mxCell>
        <mxCell id="AmiO1NkPSx5S4UXmDlpI-61" value="具有权限" style="text;html=1;align=center;verticalAlign=middle;whiteSpace=wrap;rounded=0;" vertex="1" parent="WIyWlLk6GJQsqaUBKTNV-1">
          <mxGeometry x="260" y="270" width="60" height="30" as="geometry" />
        </mxCell>
        <mxCell id="AmiO1NkPSx5S4UXmDlpI-62" value="" style="shape=cylinder3;whiteSpace=wrap;html=1;boundedLbl=1;backgroundOutline=1;size=15;" vertex="1" parent="WIyWlLk6GJQsqaUBKTNV-1">
          <mxGeometry x="260" y="50" width="60" height="80" as="geometry" />
        </mxCell>
        <mxCell id="AmiO1NkPSx5S4UXmDlpI-63" value="员工信息" style="text;html=1;align=center;verticalAlign=middle;whiteSpace=wrap;rounded=0;" vertex="1" parent="WIyWlLk6GJQsqaUBKTNV-1">
          <mxGeometry x="260" y="85" width="60" height="30" as="geometry" />
        </mxCell>
        <mxCell id="AmiO1NkPSx5S4UXmDlpI-64" value="" style="shape=flexArrow;endArrow=classic;html=1;rounded=0;entryX=0.5;entryY=1;entryDx=0;entryDy=0;entryPerimeter=0;" edge="1" parent="WIyWlLk6GJQsqaUBKTNV-1" target="AmiO1NkPSx5S4UXmDlpI-62">
          <mxGeometry width="50" height="50" relative="1" as="geometry">
            <mxPoint x="300" y="220" as="sourcePoint" />
            <mxPoint x="280" y="180" as="targetPoint" />
          </mxGeometry>
        </mxCell>
        <mxCell id="AmiO1NkPSx5S4UXmDlpI-65" value="" style="shape=flexArrow;endArrow=classic;html=1;rounded=0;entryX=0.3;entryY=0.004;entryDx=0;entryDy=0;entryPerimeter=0;exitX=0.626;exitY=0.963;exitDx=0;exitDy=0;exitPerimeter=0;endWidth=12.413793103448276;endSize=6.613793103448276;" edge="1" parent="WIyWlLk6GJQsqaUBKTNV-1" source="AmiO1NkPSx5S4UXmDlpI-54" target="AmiO1NkPSx5S4UXmDlpI-12">
          <mxGeometry width="50" height="50" relative="1" as="geometry">
            <mxPoint x="240" y="260" as="sourcePoint" />
            <mxPoint x="290" y="210" as="targetPoint" />
          </mxGeometry>
        </mxCell>
        <mxCell id="AmiO1NkPSx5S4UXmDlpI-66" value="查询" style="text;html=1;align=center;verticalAlign=middle;whiteSpace=wrap;rounded=0;" vertex="1" parent="WIyWlLk6GJQsqaUBKTNV-1">
          <mxGeometry x="370" y="215" width="60" height="30" as="geometry" />
        </mxCell>
        <mxCell id="AmiO1NkPSx5S4UXmDlpI-68" value="" style="shape=flexArrow;endArrow=classic;html=1;rounded=0;entryX=1;entryY=0;entryDx=0;entryDy=0;exitX=1;exitY=0.5;exitDx=0;exitDy=0;exitPerimeter=0;" edge="1" parent="WIyWlLk6GJQsqaUBKTNV-1" source="AmiO1NkPSx5S4UXmDlpI-62" target="AmiO1NkPSx5S4UXmDlpI-12">
          <mxGeometry width="50" height="50" relative="1" as="geometry">
            <mxPoint x="240" y="260" as="sourcePoint" />
            <mxPoint x="290" y="210" as="targetPoint" />
            <Array as="points">
              <mxPoint x="428" y="150" />
            </Array>
          </mxGeometry>
        </mxCell>
        <mxCell id="AmiO1NkPSx5S4UXmDlpI-69" value="查询" style="text;html=1;align=center;verticalAlign=middle;whiteSpace=wrap;rounded=0;" vertex="1" parent="WIyWlLk6GJQsqaUBKTNV-1">
          <mxGeometry x="370" y="90" width="60" height="30" as="geometry" />
        </mxCell>
      </root>
    </mxGraphModel>
  </diagram>
</mxfile>
